<?xml version="1.0" standalone="no"?><!DOCTYPE svg PUBLIC "-//W3C//DTD SVG 1.1//EN" "http://www.w3.org/Graphics/SVG/1.1/DTD/svg11.dtd"><svg t="1697597564145" class="icon" viewBox="0 0 1024 1024" version="1.1" xmlns="http://www.w3.org/2000/svg" p-id="1982" width="48" height="48" xmlns:xlink="http://www.w3.org/1999/xlink"><path d="M790.402022 268.426706c-1.813694-0.906847-2.720541-1.813694-4.534235-2.720541-73.454605-36.273879-165.952997-36.273879-245.755531-35.367033-115.169566 1.813694-253.917154 38.99442-243.941837 180.462549-3.627388-52.597125-136.027047-178.648855-179.555701-103.380555-17.230093 29.92595 18.13694 66.199829 37.180726 87.057309 64.386135 70.734064 41.714961 104.287402 16.323245 165.04615-25.391715 60.758748 67.106676 44.435502 97.939474 11.789011 30.832797-32.646491-177.742008 204.947417 201.320029 132.399659 0 0 499.672685 63.479288 437.100243-176.835161-22.671174-87.964157-29.019103-211.295346-116.076413-258.451388z" fill="#FABE2C" p-id="1983"></path><path d="M658.90921 86.150463c-126.958577 107.007943-122.424342 259.358236-66.199829 403.546905 32.646491 83.429922 76.175146 157.791374 80.709381 250.289766 5.441082 92.498392-52.597125 160.511915-73.454605 246.662378-9.06847 37.180726 48.06289 53.503972 57.131359 16.323246 18.13694-76.175146 66.199829-138.747588 75.2683-218.550122 8.161623-79.802534-16.323246-160.511915-48.06289-233.059673-63.479288-143.281823-124.238036-302.886891 17.230092-422.590692 29.019103-25.391715-13.602705-67.106676-42.621808-42.621808z" fill="#F9821E" p-id="1984"></path><path d="M394.109893 122.424342c-42.621808 54.410819-67.106676 112.449025-62.572442 183.18309 4.534235 69.827217 38.087573 134.213353 69.827218 194.9721 33.553338 64.386135 68.92037 125.144883 64.386135 200.413182-3.627388 60.758748-36.273879 121.517495-53.503972 179.555702-16.323246 52.597125 66.199829 75.268299 82.523075 22.671174 16.323246-52.597125 38.99442-104.287402 50.783431-158.698221 12.695858-59.851901 4.534235-118.796954-15.416398-175.021467-45.342349-123.331189-176.835161-257.544542-76.175147-386.316812 33.553338-42.621808-26.298562-104.287402-59.8519-60.758748z" fill="#F9821E" p-id="1985"></path><path d="M834.837524 486.06998c0 10.882164-9.06847 19.950634-19.950633 19.950634-10.882164 0-19.950634-9.06847-19.950634-19.950634 0-10.882164 9.06847-19.950634 19.950634-19.950633 11.789011 0.906847 19.950634 9.06847 19.950633 19.950633z" fill="#873424" p-id="1986"></path><path d="M200.682273 394.500351a67.106676 13.602705 54.577 1 0 22.169557-15.768482 67.106676 13.602705 54.577 1 0-22.169557 15.768482Z" fill="#F9821E" p-id="1987"></path><path d="M204.324141 572.146352a14.509552 38.99442 40.141 1 0 50.277131-59.61937 14.509552 38.99442 40.141 1 0-50.277131 59.61937Z" fill="#F9821E" p-id="1988"></path></svg>